<svg width="21" height="6" viewBox="0 0 21 6" fill="none" xmlns="http://www.w3.org/2000/svg">
<path id="Vector" d="M2.26227 2.85687C2.32116 2.5301 2.15829 2.23762 1.8147 2.2653C1.34864 2.30291 1.02433 3.27297 2.01584 3.59577C2.82869 3.86044 3.42051 3.24775 4.35702 2.30238C6.44951 0.190073 8.9762 -0.0148001 10.5171 2.11756C11.1522 0.948903 13.6556 -0.999217 17.4781 3.04173C18.8823 4.52616 20.137 3.13016 19.4496 2.36403C19.1369 2.01552 18.5257 2.50221 18.8335 2.85687H18.7718C17.3372 1.58456 20.3339 0.395684 20.9277 2.54884C21.5413 5.78977 18.1226 6.31662 15.3838 5.13599C10.0904 2.48687 10.034 3.19853 4.91106 5.38245C3.33884 6.02693 1.41336 5.65869 0.636118 4.91348C-0.287021 4.02844 -0.229927 1.92524 0.968468 1.50147C2.19155 1.01084 3.2263 2.06121 2.26227 2.85687Z" fill="white" fill-opacity = "0.80"/>
</svg>
